<svg version="1.1" xmlns="http://www.w3.org/2000/svg" xmlns:xlink="http://www.w3.org/1999/xlink" width="41.7955" height="164.6968" viewBox="0,0,41.7955,164.6968"><g transform="translate(-219.4,-97.5)"><g data-paper-data="{&quot;isPaintingLayer&quot;:true}" fill-rule="nonzero" stroke="none" stroke-width="0.66342" stroke-linecap="butt" stroke-linejoin="miter" stroke-miterlimit="10" stroke-dasharray="" stroke-dashoffset="0" style="mix-blend-mode: normal"><path d="M259.3087,149.7138l-13.8031,43.7354l10.2644,-7.2857l-20.9322,67.9475l4.2625,-48.1006l-7.3249,7.5888l5.0274,-42.1252l-11.4314,8.464l6.9991,-34.4011l-9.9559,6.3377l-1.2612,-51.6632l25.2976,-0.0007l-5.5476,31.5397l14.4958,-7.2426l-10.3434,32.1919l14.2529,-6.9859" fill="#faec00"/><path d="M261.1955,147.4781l-10.7806,39.6945l10.7806,-7.4078l-27.7317,82.432l1.7515,-48.5l-5.864,5.1541l5.3631,-41.9945l-11.5555,6.7397l5.7068,-33.4338l-8.3604,6.1612l-1.1053,-58.8235l30.2964,1.5484l-4.8655,28.4163l13.3792,-5.795l-9.1778,30.8391l12.1632,-5.0307zM254.5613,187.836l-10.283,7.2976l13.9318,-44.142l-14.2635,6.9905l10.3387,-32.1759l-14.2635,7.1264l5.639,-32.0584l-23.828,0.0006l1.216,49.8096l10.283,-6.5459l-6.9659,34.2371l11.2782,-8.3505l-4.9757,41.694l7.2605,-7.5212l-3.8757,43.7154l18.5081,-60.0773z" fill="#231f20"/></g></g></svg>